<?xml version="1.0" standalone="no"?>
<!DOCTYPE svg PUBLIC "-//W3C//DTD SVG 20010904//EN"
 "http://www.w3.org/TR/2001/REC-SVG-20010904/DTD/svg10.dtd">
<svg version="1.0" xmlns="http://www.w3.org/2000/svg"
 width="1000.000000pt" height="1000.000000pt" viewBox="0 0 1000.000000 1000.000000"
 preserveAspectRatio="xMidYMid meet">
<metadata>
Created by potrace 1.11, written by Peter Selinger 2001-2013
</metadata>
<g transform="translate(0.000000,1000.000000) scale(0.100000,-0.100000)"
fill="#000000" stroke="none">
<path d="M0 5000 l0 -5000 5000 0 5000 0 0 5000 0 5000 -5000 0 -5000 0 0
-5000z m3459 4000 c181 -19 318 -71 411 -157 98 -90 128 -189 131 -434 l1
-134 -275 -3 -275 -2 -3 149 c-4 128 -7 152 -23 169 -43 48 -118 34 -148 -28
-21 -42 -25 -190 -6 -252 16 -54 87 -116 249 -216 170 -105 276 -184 360 -267
120 -119 158 -235 166 -502 6 -190 -5 -300 -40 -391 -44 -118 -190 -223 -377
-274 -72 -19 -108 -22 -240 -22 -178 1 -262 19 -388 81 -211 104 -277 248
-284 618 l-3 160 278 3 277 2 0 -182 c1 -258 9 -286 93 -295 41 -5 49 -2 75
24 54 54 66 209 26 350 -19 67 -60 104 -301 268 -231 157 -313 222 -353 280
-81 117 -110 235 -110 438 1 158 19 269 56 346 98 200 372 306 703 271z m1712
-64 c178 -28 282 -85 355 -194 79 -118 78 -107 82 -880 4 -723 -2 -847 -39
-948 -45 -120 -153 -195 -321 -220 -69 -10 -209 -14 -550 -14 l-458 0 0 1141
0 1142 418 -6 c305 -4 443 -9 513 -21z m1589 0 c197 -39 327 -155 376 -339 24
-89 35 -265 24 -374 -18 -171 -73 -243 -219 -289 -33 -10 -61 -22 -61 -26 0
-3 15 -9 33 -13 61 -13 154 -65 194 -108 77 -83 103 -206 103 -482 0 -347 -43
-483 -175 -560 -90 -53 -137 -57 -692 -62 l-513 -5 -2 1137 c-2 625 -1 1139 2
1142 3 3 194 3 425 0 333 -4 437 -8 505 -21z m689 -3045 c54 -39 61 -68 61
-273 0 -204 -6 -228 -72 -268 -43 -26 -139 -27 -188 -2 -67 34 -75 62 -75 277
0 216 6 239 73 275 53 29 154 24 201 -9z m-4369 -266 l0 -285 -75 0 -75 0 0
195 c0 182 -1 195 -19 205 -11 5 -33 10 -50 10 -28 0 -31 3 -31 33 0 31 4 35
54 56 29 12 64 33 76 46 19 20 33 25 72 25 l48 0 0 -285z m4040 0 l0 -285 -75
0 -75 0 0 195 c0 182 -1 195 -19 205 -11 5 -33 10 -50 10 -28 0 -31 3 -31 33
0 31 4 35 54 56 29 12 64 33 76 46 19 20 33 25 72 25 l48 0 0 -285z m-4490
234 c51 -11 51 -11 45 -42 -13 -63 -16 -69 -33 -61 -10 4 -38 9 -65 12 -55 5
-88 -12 -112 -58 l-16 -30 96 0 96 0 -3 -27 -3 -28 -97 -3 c-90 -2 -98 -4 -98
-22 0 -18 7 -20 91 -20 l90 0 -3 -27 c-3 -28 -4 -28 -84 -33 -76 -5 -81 -6
-74 -25 4 -11 20 -31 35 -45 21 -20 37 -25 75 -24 27 0 59 8 74 17 14 9 28 17
31 17 3 0 5 -24 5 -54 0 -52 -1 -55 -31 -65 -48 -16 -129 -13 -174 8 -49 22
-109 86 -125 135 -9 28 -17 36 -36 36 -24 0 -30 13 -18 44 3 9 12 16 20 16 8
0 14 9 14 20 0 13 -7 20 -20 20 -35 0 -23 54 14 61 11 2 24 17 29 34 14 41 63
103 98 120 26 14 87 32 116 34 7 1 35 -4 63 -10z m4050 0 c51 -11 51 -11 45
-42 -13 -63 -16 -69 -33 -61 -10 4 -38 9 -63 12 -54 4 -92 -15 -115 -59 l-15
-29 96 0 96 0 -3 -27 -3 -28 -97 -3 c-90 -2 -98 -4 -98 -22 0 -18 7 -20 91
-20 l90 0 -3 -27 c-3 -28 -4 -28 -84 -33 -76 -5 -81 -6 -74 -25 4 -11 20 -31
35 -45 21 -20 37 -25 75 -24 27 0 59 8 74 17 14 9 28 17 31 17 3 0 5 -24 5
-54 0 -52 -1 -55 -31 -65 -48 -16 -129 -13 -174 8 -53 24 -101 74 -121 128
-13 34 -22 43 -40 43 -24 0 -30 14 -18 44 3 9 12 16 20 16 8 0 14 9 14 20 0
14 -7 20 -21 20 -31 0 -23 52 10 60 16 4 28 16 34 35 14 41 63 103 98 120 26
14 87 32 116 34 7 1 35 -4 63 -10z m460 -919 c76 -39 94 -131 47 -234 -15 -31
-51 -95 -81 -141 l-56 -85 75 0 75 0 0 -50 0 -50 -155 0 -155 0 0 44 c0 36 10
60 48 123 116 187 155 278 134 311 -5 8 -18 12 -28 10 -16 -3 -20 -14 -22 -61
l-3 -57 -64 0 -65 0 0 53 c0 67 25 117 70 139 48 24 131 23 180 -2z m-3970
-35 l0 -45 -90 0 -90 0 0 -46 c0 -45 0 -45 22 -30 25 18 84 21 122 6 46 -17
60 -62 60 -195 0 -132 -9 -163 -57 -199 -24 -17 -43 -21 -110 -21 -125 0 -165
37 -175 163 l-5 63 74 -3 74 -3 5 -65 c4 -57 8 -65 25 -65 19 0 20 8 23 110 1
61 -2 116 -7 124 -12 19 -41 6 -41 -19 0 -18 -6 -20 -77 -20 l-76 0 6 107 c4
58 7 123 7 145 l0 38 155 0 155 0 0 -45z m4410 0 l0 -45 -90 0 -90 0 0 -46 c0
-45 0 -45 22 -30 25 18 100 21 129 6 40 -22 53 -68 53 -195 1 -103 -2 -125
-19 -155 -28 -47 -76 -70 -150 -70 -112 0 -163 50 -173 166 l-5 65 74 -3 74
-3 5 -65 c4 -57 8 -65 25 -65 19 0 20 8 23 110 1 61 -2 116 -7 124 -12 19 -41
6 -41 -19 0 -18 -6 -20 -77 -20 l-76 0 6 107 c4 58 7 123 7 145 l0 38 155 0
155 0 0 -45z m-4950 -6 c51 -11 51 -11 45 -42 -13 -63 -16 -69 -33 -61 -10 4
-38 9 -65 12 -55 5 -88 -12 -112 -58 l-16 -30 96 0 96 0 -3 -27 -3 -28 -97 -3
c-90 -2 -98 -4 -98 -22 0 -18 7 -20 91 -20 l90 0 -3 -27 c-3 -28 -4 -28 -84
-33 -76 -5 -81 -6 -74 -25 4 -11 20 -31 35 -45 21 -20 37 -25 75 -24 27 0 59
8 74 17 14 9 28 17 31 17 3 0 5 -24 5 -54 0 -52 -1 -55 -31 -65 -40 -14 -103
-14 -153 0 -51 14 -121 80 -142 135 -13 35 -22 44 -40 44 -24 0 -30 14 -18 44
3 9 12 16 20 16 8 0 14 9 14 20 0 13 -7 20 -20 20 -35 0 -23 54 14 61 11 2 24
17 29 34 14 41 63 103 98 120 26 14 87 32 116 34 7 1 35 -4 63 -10z m4073 -5
c26 -5 28 -9 22 -37 -13 -63 -16 -69 -33 -61 -10 4 -38 9 -63 12 -54 4 -92
-15 -115 -59 l-15 -29 96 0 96 0 -3 -27 -3 -28 -97 -3 c-90 -2 -98 -4 -98 -22
0 -18 7 -20 91 -20 l90 0 -3 -27 c-3 -28 -4 -28 -84 -33 -76 -5 -81 -6 -74
-25 4 -11 20 -31 35 -45 21 -20 37 -25 75 -24 27 0 59 8 74 17 14 9 28 17 31
17 3 0 5 -24 5 -54 0 -52 -1 -55 -31 -65 -48 -16 -129 -13 -174 8 -53 24 -101
74 -121 128 -13 34 -22 43 -40 43 -24 0 -30 14 -18 44 3 9 12 16 20 16 8 0 14
9 14 20 0 14 -7 20 -21 20 -31 0 -23 52 10 60 16 4 28 16 34 35 14 41 63 103
98 120 61 32 112 37 202 19z m-613 -3192 c0 -601 -1 -639 -17 -641 -10 -1 -52
-2 -93 -2 -46 0 -77 -5 -82 -12 -6 -9 -8 -9 -8 1 0 14 -57 17 -62 2 -2 -6 -9
-6 -18 0 -13 8 -15 80 -18 535 l-3 525 -2659 0 -2660 0 0 -537 c0 -296 -4
-533 -8 -527 -8 13 -222 17 -222 5 0 -4 -7 -8 -15 -8 -13 0 -15 79 -15 649 l0
648 2940 0 2940 0 0 -638z m3690 71 c0 -350 -4 -574 -10 -583 -7 -12 -10 -12
-10 -1 0 9 -6 11 -17 6 -25 -10 -183 -13 -209 -4 -12 4 -38 4 -58 -1 -20 -4
-36 -4 -36 1 0 5 -10 5 -22 1 -28 -9 -264 -8 -301 2 -15 3 -27 3 -27 -1 0 -5
-38 -8 -85 -8 -46 0 -79 3 -72 7 7 4 -3 8 -23 8 -20 0 -30 -4 -23 -8 7 -4
-118 -7 -278 -7 -159 0 -289 4 -289 8 0 5 -5 5 -11 1 -19 -11 -229 -13 -229
-2 0 6 -7 7 -17 2 -24 -11 -136 -11 -144 0 -4 4 -16 3 -29 -4 -14 -7 -46 -10
-88 -6 -37 2 -71 5 -77 5 -5 0 -115 -2 -242 -4 l-233 -3 0 579 0 579 1265 0
1265 0 0 -567z"/>
<path d="M4830 7817 l0 -749 47 7 c56 8 99 28 111 53 20 38 23 136 23 727 0
487 -2 620 -13 641 -19 40 -57 62 -115 67 l-53 4 0 -750z"/>
<path d="M6420 8313 l0 -255 63 7 c73 8 104 25 114 63 5 15 8 99 8 187 0 214
-12 236 -137 248 l-48 5 0 -255z"/>
<path d="M6420 7386 l0 -317 53 7 c70 9 109 32 124 74 15 43 17 429 3 480 -13
46 -40 61 -117 68 l-63 5 0 -317z"/>
<path d="M7327 5823 c-4 -3 -7 -93 -7 -200 0 -165 2 -194 15 -200 9 -3 19 -2
23 2 9 9 16 328 7 371 -5 31 -22 43 -38 27z"/>
<path d="M7550 1590 l0 -160 990 0 990 0 0 160 0 160 -990 0 -990 0 0 -160z"/>
</g>
</svg>
